<?xml version="1.0" encoding="UTF-8"?>
<svg id="Livello_2" data-name="Livello 2" xmlns="http://www.w3.org/2000/svg" xmlns:xlink="http://www.w3.org/1999/xlink" viewBox="0 0 109.27 54.31">
  <defs>
    <style>
      .cls-1 {
        fill: none;
      }

      .cls-2 {
        fill: #010101;
      }

      .cls-3 {
        clip-path: url(#clippath-1);
      }

      .cls-4 {
        clip-path: url(#clippath-3);
      }

      .cls-5 {
        clip-path: url(#clippath-2);
      }

      .cls-6, .cls-7 {
        fill-rule: evenodd;
      }

      .cls-6, .cls-8 {
        fill: #d93733;
      }

      .cls-7 {
        fill: #5a9e52;
      }

      .cls-9 {
        clip-path: url(#clippath);
      }
    </style>
    <clipPath id="clippath">
      <rect class="cls-1" width="109.27" height="54.31"/>
    </clipPath>
    <clipPath id="clippath-1">
      <rect class="cls-1" x="18.05" y="21.11" width="77.68" height="20.14"/>
    </clipPath>
    <clipPath id="clippath-2">
      <rect class="cls-1" x="18.05" y="39.16" width="91.15" height="9.19"/>
    </clipPath>
    <clipPath id="clippath-3">
      <rect class="cls-1" x="18.05" y="39.16" width="91.22" height="9.19"/>
    </clipPath>
  </defs>
  <g id="Livello_1-2" data-name="Livello 1">
    <g class="cls-9">
      <g>
        <path class="cls-7" d="M.81,25.79c.14-9.28,5.93-16.65,13.98-20.7,2.4-1.21,4.89-2.15,7.49-2.76,5.41-1.29,11.07-1.62,16.61-1.37.65.03,1.35.08,1.88.46,1.7,1.21.91,4.34.07,5.79-1.11,1.92-4.01,1.06-5.83,1.05-2.78,0-5.57.14-8.32.59-3.76.63-7.45,1.85-10.64,3.94-5.58,3.66-9.34,9.74-11.96,15.76-.33.76-.55,1.63-1.24,2.16-.23.17-.51.29-.79.24-.29-.05-.52-.29-.64-.56-.6-1.29-.63-3.19-.61-4.58v-.02Z"/>
        <path class="cls-6" d="M32.99,11.61c1.98.04,3.94.27,5.78.65.86.18,1.53.55,1.56,1.53.05,1.6-.48,3.11-1.28,4.48-.36.61-.51,1.06-1.2,1.24-.85.21-1.85-.09-2.69-.24-4.57-.81-9.22.37-13.01,3.01-3.78,2.64-6.73,6.26-10.49,8.92-.57.4-1.33.79-1.92.42-.52-.33-.59-1.05-.55-1.67.19-3.48,1.71-6.81,3.94-9.49,4.88-5.87,12.3-8.99,19.86-8.85Z"/>
        <g class="cls-3">
          <g>
            <path class="cls-2" d="M20.74,31.81c0,.89.07,1.59.21,2.1.14.51.39.87.75,1.09.36.22.87.32,1.52.32.17,0,.38,0,.62-.02.24-.02.5-.03.77-.04v-2.15l-.03-1.4,1.68-.06.16,1.34v3.49c-.22.08-.53.15-.93.22-.4.07-.82.12-1.26.16-.44.04-.84.06-1.21.06-.98,0-1.78-.17-2.39-.51-.61-.34-1.06-.89-1.34-1.63-.28-.74-.42-1.72-.42-2.92,0-1.82.33-3.15.99-3.99.66-.84,1.74-1.26,3.22-1.26.41,0,.83.02,1.27.06.44.04.84.09,1.2.15.36.06.63.12.8.18l-.19,1.59c-.19-.06-.46-.12-.8-.18-.34-.06-.7-.11-1.08-.16-.38-.04-.72-.07-1.04-.07-.61,0-1.1.12-1.47.35-.37.23-.64.61-.8,1.14-.16.52-.24,1.23-.24,2.13Z"/>
            <path class="cls-2" d="M33.7,30.02c0-.62-.15-1.07-.44-1.36-.29-.29-.76-.44-1.42-.44h-1.8v3.7h1.61c.67-.01,1.18-.17,1.52-.48.35-.31.52-.78.52-1.42ZM28.2,36.76v-10.01h3.76c1.25,0,2.16.26,2.74.77.58.51.87,1.31.87,2.39,0,.72-.16,1.34-.47,1.86-.31.51-.74.91-1.28,1.19.19.38.41.79.66,1.24.25.44.52.88.79,1.31.28.43.54.83.79,1.2l-1.99.12c-.32-.49-.66-1.04-.99-1.64-.34-.6-.64-1.21-.92-1.82-.05.01-.1.02-.16.02h-1.96v3.39h-1.85Z"/>
            <path class="cls-2" d="M43.24,33.38v-6.63h1.86v6.69c0,1.18-.34,2.06-1.02,2.63-.68.57-1.66.86-2.94.86s-2.21-.28-2.88-.84c-.67-.56-1-1.44-1-2.65v-6.69h1.84v6.63c0,.68.16,1.19.48,1.54.32.35.85.52,1.58.52s1.26-.17,1.59-.52c.32-.35.49-.86.49-1.54Z"/>
            <path class="cls-2" d="M52.68,30.12c0-.68-.16-1.16-.47-1.46-.31-.3-.8-.44-1.46-.44h-1.8v3.92h1.63c.67-.01,1.18-.18,1.55-.53.37-.34.55-.84.55-1.49ZM47.1,36.76v-10.01h3.76c1.24,0,2.16.26,2.76.79.61.52.91,1.35.91,2.49s-.34,2.07-1.01,2.67c-.68.6-1.61.9-2.79.9h-1.79v3.16h-1.85Z"/>
            <path class="cls-2" d="M61.6,30.12c0-.68-.16-1.16-.47-1.46-.31-.3-.8-.44-1.46-.44h-1.8v3.92h1.63c.67-.01,1.18-.18,1.55-.53.37-.34.55-.84.55-1.49ZM56.02,36.76v-10.01h3.76c1.24,0,2.16.26,2.76.79.61.52.91,1.35.91,2.49s-.34,2.07-1.01,2.67c-.68.6-1.61.9-2.79.9h-1.79v3.16h-1.85Z"/>
            <path class="cls-2" d="M64.53,31.7c0-1.79.35-3.09,1.06-3.9.71-.81,1.8-1.22,3.29-1.22s2.58.4,3.27,1.19c.7.8,1.05,2.1,1.05,3.92s-.34,3.14-1.03,3.98c-.68.84-1.78,1.26-3.29,1.26s-2.62-.41-3.31-1.24c-.69-.82-1.03-2.16-1.03-4ZM68.86,35.43c.63,0,1.12-.13,1.48-.38.36-.25.61-.65.76-1.2.15-.55.22-1.27.22-2.15s-.07-1.58-.22-2.11c-.15-.53-.4-.91-.76-1.15-.36-.24-.84-.36-1.46-.36s-1.11.12-1.47.36c-.36.24-.62.62-.77,1.15-.15.53-.23,1.23-.23,2.11s.07,1.6.22,2.15c.15.55.4.95.77,1.2.36.25.85.38,1.47.38Z"/>
            <path class="cls-2" d="M83.41,30.12c0-.68-.16-1.16-.47-1.46-.31-.3-.8-.44-1.46-.44h-1.8v3.92h1.63c.67-.01,1.18-.18,1.55-.53.37-.34.55-.84.55-1.49ZM77.84,36.76v-10.01h3.76c1.24,0,2.16.26,2.76.79.61.52.91,1.35.91,2.49s-.34,2.07-1.01,2.67c-.68.6-1.61.9-2.79.9h-1.79v3.16h-1.85Z"/>
            <path class="cls-2" d="M92.95,31.68c0-.85-.11-1.52-.31-2.02-.21-.5-.53-.86-.95-1.07-.42-.21-.95-.32-1.59-.32h-1.49v6.98h1.36c.62-.01,1.15-.12,1.6-.35.45-.22.79-.59,1.03-1.11.24-.51.36-1.22.36-2.1ZM86.76,36.76v-10.01h3.36c1.01,0,1.86.16,2.56.47.7.31,1.23.82,1.59,1.52.36.69.54,1.61.54,2.76,0,1.84-.42,3.18-1.27,4.01-.84.83-2.03,1.25-3.55,1.25h-3.25Z"/>
          </g>
        </g>
        <g class="cls-5">
          <g class="cls-4">
            <g>
              <path class="cls-2" d="M18.63,46.36v-4.46h.82v4.46h-.82Z"/>
              <path class="cls-2" d="M20.7,42.48h.55v.85h1.09v.62h-1.09v1.35c0,.18.02.31.07.38.05.07.14.1.28.1.1,0,.21,0,.34-.03.13-.02.25-.04.36-.07l.1.6c-.14.03-.3.07-.48.1-.18.03-.36.05-.53.05-.31,0-.54-.08-.68-.24-.14-.16-.21-.42-.21-.79v-1.46h-.43v-.49l.48-.1.17-.88Z"/>
              <path class="cls-2" d="M25.31,46.35l-.71.03-.06-.43c-.11.08-.22.15-.36.23-.13.08-.26.14-.39.19s-.26.07-.38.07c-.14,0-.26-.04-.36-.11-.11-.07-.19-.17-.25-.28-.06-.12-.09-.24-.09-.37,0-.15.02-.29.07-.4.05-.12.14-.22.26-.31.13-.09.31-.17.54-.25.24-.08.54-.16.92-.25v-.13c0-.16-.03-.28-.1-.33-.06-.06-.16-.09-.3-.09-.06,0-.13,0-.24.02-.1.02-.21.03-.34.06-.12.02-.24.04-.36.07-.12.03-.22.05-.3.08l-.12-.6c.13-.04.29-.09.48-.13.18-.04.37-.07.56-.1.19-.03.35-.04.48-.04.22,0,.4.03.55.09.15.06.27.16.34.31.08.15.12.36.12.63v1.4l.04.66ZM24.51,45.42v-.5c-.27.07-.48.13-.62.2-.14.06-.24.12-.3.19-.05.07-.08.14-.08.22,0,.07.02.13.06.2.04.06.1.09.17.09.05,0,.12-.02.21-.06.09-.04.18-.09.28-.15.1-.06.2-.12.28-.19Z"/>
              <path class="cls-2" d="M26.82,41.68v3.9l.03.76-.71.04-.1-.78v-3.87l.78-.06Z"/>
              <path class="cls-2" d="M27.62,46.36v-2.15l-.03-.87.74-.03.06.83v2.22h-.78ZM27.61,42.76v-.75h.8v.75h-.8Z"/>
              <path class="cls-2" d="M31.6,46.35l-.71.03-.06-.43c-.11.08-.22.15-.36.23-.13.08-.26.14-.39.19s-.26.07-.38.07c-.14,0-.26-.04-.36-.11-.11-.07-.19-.17-.25-.28-.06-.12-.09-.24-.09-.37,0-.15.02-.29.07-.4.05-.12.14-.22.26-.31.13-.09.31-.17.54-.25.24-.08.54-.16.92-.25v-.13c0-.16-.03-.28-.1-.33-.06-.06-.16-.09-.3-.09-.06,0-.13,0-.24.02-.1.02-.21.03-.34.06-.12.02-.24.04-.36.07-.12.03-.22.05-.3.08l-.12-.6c.13-.04.29-.09.48-.13.18-.04.37-.07.56-.1.19-.03.35-.04.48-.04.22,0,.4.03.55.09.15.06.27.16.34.31.08.15.12.36.12.63v1.4l.04.66ZM30.79,45.42v-.5c-.27.07-.48.13-.62.2-.14.06-.24.12-.3.19-.05.07-.08.14-.08.22,0,.07.02.13.06.2.04.06.1.09.17.09.05,0,.12-.02.21-.06.09-.04.18-.09.28-.15.1-.06.2-.12.28-.19Z"/>
              <path class="cls-2" d="M36.48,44.1c0-.38-.05-.68-.14-.9-.09-.22-.24-.38-.43-.48-.19-.1-.42-.14-.71-.14h-.66v3.11h.6c.28,0,.51-.06.71-.16.2-.1.35-.26.46-.49.11-.23.16-.54.16-.94ZM33.72,46.36v-4.46h1.5c.45,0,.83.07,1.14.21.31.14.55.36.71.67.16.31.24.72.24,1.23,0,.82-.19,1.42-.56,1.79-.38.37-.9.56-1.58.56h-1.45Z"/>
              <path class="cls-2" d="M37.83,44.87c0-.52.13-.91.39-1.19.26-.28.6-.42,1.02-.42s.73.1.95.29.34.48.34.87c0,.07,0,.15,0,.24,0,.1-.01.18-.02.25-.09,0-.22,0-.37.01-.15,0-.35.01-.59.02-.24,0-.55,0-.93.01,0,.32.06.54.16.66.11.12.29.17.55.17.09,0,.21,0,.35-.02.14-.02.28-.03.43-.06.14-.02.26-.05.36-.07l.08.58c-.11.04-.24.07-.4.11-.16.03-.32.06-.49.08-.17.02-.33.03-.48.03-.28,0-.53-.05-.73-.14s-.35-.25-.46-.48c-.1-.23-.16-.55-.16-.95ZM38.63,44.49c.21,0,.42,0,.62-.01.21,0,.38-.01.5-.02,0-.02,0-.04,0-.07v-.09c0-.16-.04-.28-.13-.37-.08-.09-.21-.13-.39-.13-.2,0-.34.06-.44.18-.1.12-.16.29-.18.5Z"/>
              <path class="cls-2" d="M41.19,46.36v-2.23l-.02-.79.69-.03.06.43c.16-.14.34-.25.53-.35.19-.1.38-.14.57-.14.4,0,.66.16.78.49.16-.14.34-.26.53-.35.19-.09.38-.14.57-.14.3,0,.52.09.66.26.14.18.21.43.21.77v2.07h-.78v-1.97c0-.14-.03-.25-.08-.33s-.14-.12-.25-.12c-.11,0-.23.04-.38.13-.14.08-.27.18-.4.3v1.99h-.78v-1.97c0-.14-.03-.25-.08-.33-.05-.08-.14-.12-.26-.12-.11,0-.23.05-.39.14-.15.09-.29.2-.41.32v1.96h-.78Z"/>
              <path class="cls-2" d="M46.37,44.85c0-.57.12-.98.38-1.22.25-.25.6-.37,1.05-.37s.81.12,1.07.37.39.65.39,1.22-.13.99-.39,1.23c-.26.24-.61.36-1.07.36s-.8-.12-1.05-.37c-.25-.25-.38-.65-.38-1.22ZM47.15,44.85c0,.26.02.46.07.6.05.14.12.24.22.29.1.06.22.08.37.08s.27-.03.36-.08c.1-.06.17-.15.22-.29.05-.14.08-.34.08-.6,0-.37-.06-.63-.17-.77-.11-.14-.28-.21-.49-.21s-.38.07-.49.21c-.11.14-.16.4-.16.77Z"/>
              <path class="cls-2" d="M50.54,44.87c0,.24.03.42.09.55.06.13.14.22.26.27.12.05.26.07.43.07.06,0,.14,0,.23-.01.09,0,.18-.02.28-.04.09-.02.17-.03.24-.04l.08.58c-.12.05-.28.09-.48.13-.2.04-.38.06-.54.06-.3,0-.55-.05-.76-.14-.2-.1-.36-.25-.46-.47-.1-.22-.16-.51-.16-.88,0-.41.05-.74.16-.99.1-.25.26-.42.47-.53.21-.11.46-.16.77-.16.11,0,.22,0,.34.02.12.01.24.03.36.05.11.02.21.04.28.07l-.08.67c-.1-.04-.24-.07-.41-.11-.17-.03-.33-.05-.47-.05-.22,0-.38.07-.48.21-.1.14-.15.39-.15.75Z"/>
              <path class="cls-2" d="M54.73,43.29l-.07.75s-.07-.01-.12-.02c-.05,0-.09,0-.13,0-.1,0-.23.07-.4.2-.17.13-.34.31-.52.55v1.6h-.78v-2.12l-.02-.9.69-.03.07.7c.15-.21.31-.39.48-.53.17-.15.33-.22.5-.22.06,0,.12,0,.18.01.06,0,.1.01.12.02Z"/>
              <path class="cls-2" d="M57.63,46.35l-.71.03-.06-.43c-.11.08-.22.15-.36.23-.13.08-.26.14-.39.19s-.26.07-.38.07c-.14,0-.26-.04-.36-.11-.11-.07-.19-.17-.25-.28-.06-.12-.09-.24-.09-.37,0-.15.02-.29.07-.4.05-.12.14-.22.26-.31.13-.09.31-.17.54-.25.24-.08.54-.16.92-.25v-.13c0-.16-.03-.28-.1-.33-.06-.06-.16-.09-.3-.09-.06,0-.13,0-.24.02-.1.02-.21.03-.34.06-.12.02-.24.04-.36.07-.12.03-.22.05-.3.08l-.12-.6c.13-.04.29-.09.48-.13.18-.04.37-.07.56-.1.19-.03.35-.04.48-.04.22,0,.4.03.55.09.15.06.27.16.34.31.08.15.12.36.12.63v1.4l.04.66ZM56.82,45.42v-.5c-.27.07-.48.13-.62.2-.14.06-.24.12-.3.19-.05.07-.08.14-.08.22,0,.07.02.13.06.2.04.06.1.09.17.09.05,0,.12-.02.21-.06.09-.04.18-.09.28-.15.1-.06.2-.12.28-.19Z"/>
              <path class="cls-2" d="M58.75,42.48h.55v.85h1.09v.62h-1.09v1.35c0,.18.02.31.07.38.05.07.14.1.28.1.1,0,.21,0,.34-.03.13-.02.25-.04.36-.07l.1.6c-.14.03-.3.07-.48.1-.18.03-.36.05-.53.05-.31,0-.54-.08-.68-.24-.14-.16-.21-.42-.21-.79v-1.46h-.43v-.49l.48-.1.17-.88Z"/>
              <path class="cls-2" d="M60.92,46.36v-2.15l-.03-.87.74-.03.06.83v2.22h-.78ZM60.91,42.76v-.75h.8v.75h-.8Z"/>
              <path class="cls-2" d="M63.12,44.87c0,.24.03.42.09.55.06.13.14.22.26.27.12.05.26.07.43.07.06,0,.14,0,.23-.01.09,0,.18-.02.28-.04.09-.02.17-.03.24-.04l.08.58c-.12.05-.28.09-.48.13-.2.04-.38.06-.54.06-.3,0-.55-.05-.76-.14-.2-.1-.36-.25-.46-.47-.1-.22-.16-.51-.16-.88,0-.41.05-.74.16-.99.1-.25.26-.42.47-.53.21-.11.46-.16.77-.16.11,0,.22,0,.34.02.12.01.24.03.36.05.11.02.21.04.28.07l-.08.67c-.1-.04-.24-.07-.41-.11-.17-.03-.33-.05-.47-.05-.22,0-.38.07-.48.21-.1.14-.15.39-.15.75Z"/>
              <path class="cls-2" d="M67.74,46.35l-.71.03-.06-.43c-.11.08-.22.15-.36.23-.13.08-.26.14-.39.19s-.26.07-.38.07c-.14,0-.26-.04-.36-.11-.11-.07-.19-.17-.25-.28-.06-.12-.09-.24-.09-.37,0-.15.02-.29.07-.4.05-.12.14-.22.26-.31.13-.09.31-.17.54-.25.24-.08.54-.16.92-.25v-.13c0-.16-.03-.28-.1-.33-.06-.06-.16-.09-.3-.09-.06,0-.13,0-.24.02-.1.02-.21.03-.34.06-.12.02-.24.04-.36.07-.12.03-.22.05-.3.08l-.12-.6c.13-.04.29-.09.48-.13.18-.04.37-.07.56-.1.19-.03.35-.04.48-.04.22,0,.4.03.55.09.15.06.27.16.34.31.08.15.12.36.12.63v1.4l.04.66ZM66.93,45.42v-.5c-.27.07-.48.13-.62.2-.14.06-.24.12-.3.19-.05.07-.08.14-.08.22,0,.07.02.13.06.2.04.06.1.09.17.09.05,0,.12-.02.21-.06.09-.04.18-.09.28-.15.1-.06.2-.12.28-.19Z"/>
              <path class="cls-2" d="M69.65,44.87c0-.52.13-.91.39-1.19.26-.28.6-.42,1.02-.42s.73.1.95.29.34.48.34.87c0,.07,0,.15,0,.24,0,.1-.01.18-.02.25-.09,0-.22,0-.37.01-.15,0-.35.01-.59.02-.24,0-.55,0-.93.01,0,.32.06.54.16.66.11.12.29.17.55.17.09,0,.21,0,.35-.02.14-.02.28-.03.43-.06.14-.02.26-.05.36-.07l.08.58c-.11.04-.24.07-.4.11-.16.03-.32.06-.49.08-.17.02-.33.03-.48.03-.28,0-.53-.05-.73-.14s-.35-.25-.46-.48c-.1-.23-.16-.55-.16-.95ZM70.44,44.49c.21,0,.42,0,.62-.01.21,0,.38-.01.5-.02,0-.02,0-.04,0-.07v-.09c0-.16-.04-.28-.13-.37-.08-.09-.21-.13-.39-.13-.2,0-.34.06-.44.18-.1.12-.16.29-.18.5Z"/>
              <path class="cls-2" d="M76.89,43.41c0-.3-.07-.52-.21-.65-.14-.13-.36-.2-.65-.2h-.8v1.75h.73c.3,0,.53-.08.69-.23.16-.15.25-.37.25-.66ZM74.4,46.36v-4.46h1.67c.55,0,.96.12,1.23.35.27.23.41.6.41,1.11s-.15.92-.45,1.19c-.3.27-.71.4-1.24.4h-.8v1.41h-.82Z"/>
              <path class="cls-2" d="M80.31,43.29l-.07.75s-.07-.01-.12-.02c-.05,0-.09,0-.13,0-.1,0-.23.07-.4.2-.17.13-.34.31-.52.55v1.6h-.78v-2.12l-.02-.9.69-.03.07.7c.15-.21.31-.39.48-.53.17-.15.33-.22.5-.22.06,0,.12,0,.18.01.06,0,.1.01.12.02Z"/>
              <path class="cls-2" d="M80.57,44.85c0-.57.12-.98.38-1.22.25-.25.6-.37,1.05-.37s.81.12,1.07.37.39.65.39,1.22-.13.99-.39,1.23c-.26.24-.61.36-1.07.36s-.8-.12-1.05-.37c-.25-.25-.38-.65-.38-1.22ZM81.36,44.85c0,.26.02.46.07.6.05.14.12.24.22.29.1.06.22.08.37.08s.27-.03.36-.08c.1-.06.17-.15.22-.29.05-.14.08-.34.08-.6,0-.37-.06-.63-.17-.77-.11-.14-.28-.21-.49-.21s-.38.07-.49.21c-.11.14-.16.4-.16.77Z"/>
              <path class="cls-2" d="M83.86,47.07c0-.17.06-.32.18-.44.12-.12.27-.22.44-.3-.14-.06-.25-.14-.33-.23s-.12-.21-.12-.33c0-.17.19-.34.57-.52-.4-.16-.6-.46-.6-.9,0-.22.06-.41.17-.57.11-.16.27-.29.47-.38.2-.09.42-.14.65-.14.2,0,.36.02.5.06.14.04.25.09.35.15.04,0,.12-.02.24-.04.12-.02.24-.03.37-.05.13-.02.23-.03.31-.03l.02.58s-.1,0-.18,0c-.08,0-.17,0-.25.01-.08,0-.14,0-.18.01.08.13.13.27.13.44,0,.33-.12.58-.35.75-.24.17-.54.25-.93.25-.03,0-.06,0-.08,0-.02,0-.04-.01-.07-.02-.09.04-.17.09-.23.14-.06.05-.09.09-.09.13,0,.09.08.16.25.2.17.04.45.07.85.08.36.01.63.09.82.22.19.13.29.34.29.61,0,.25-.08.46-.23.63-.15.17-.36.31-.63.4-.27.09-.58.14-.94.14-.46,0-.81-.07-1.05-.22-.24-.15-.37-.36-.37-.62ZM85.27,44.9c.37,0,.55-.2.55-.6,0-.36-.17-.54-.5-.54-.17,0-.3.06-.4.17-.1.11-.14.27-.14.48,0,.33.16.5.48.5ZM84.64,47c0,.12.06.22.19.3.13.09.31.13.56.13s.45-.04.63-.13c.17-.08.26-.2.26-.36,0-.13-.05-.23-.15-.29-.1-.06-.24-.09-.43-.09-.13,0-.26-.01-.39-.02-.13,0-.22-.01-.28-.03-.11.06-.2.14-.28.22-.08.09-.11.17-.11.26Z"/>
              <path class="cls-2" d="M89.56,43.29l-.07.75s-.07-.01-.12-.02c-.05,0-.09,0-.13,0-.1,0-.23.07-.4.2-.17.13-.34.31-.52.55v1.6h-.78v-2.12l-.02-.9.69-.03.07.7c.15-.21.31-.39.48-.53.17-.15.33-.22.5-.22.06,0,.12,0,.18.01.06,0,.1.01.12.02Z"/>
              <path class="cls-2" d="M89.82,44.87c0-.52.13-.91.39-1.19.26-.28.6-.42,1.02-.42s.73.1.95.29.34.48.34.87c0,.07,0,.15,0,.24,0,.1-.01.18-.02.25-.09,0-.22,0-.37.01-.15,0-.35.01-.59.02-.24,0-.55,0-.93.01,0,.32.06.54.16.66.11.12.29.17.55.17.09,0,.21,0,.35-.02.14-.02.28-.03.43-.06.14-.02.26-.05.36-.07l.08.58c-.11.04-.24.07-.4.11-.16.03-.32.06-.49.08-.17.02-.33.03-.48.03-.28,0-.53-.05-.73-.14s-.35-.25-.46-.48c-.1-.23-.16-.55-.16-.95ZM90.62,44.49c.21,0,.42,0,.62-.01.21,0,.38-.01.5-.02,0-.02,0-.04,0-.07v-.09c0-.16-.04-.28-.13-.37-.08-.09-.21-.13-.39-.13-.2,0-.34.06-.44.18-.1.12-.16.29-.18.5Z"/>
              <path class="cls-2" d="M94.23,43.26c.25,0,.49.02.73.06.24.04.43.08.58.12l-.09.6c-.09-.03-.2-.06-.34-.08-.14-.03-.28-.05-.43-.07-.15-.02-.28-.03-.41-.03s-.22.03-.31.08c-.09.05-.13.13-.13.23,0,.05.02.1.05.14.03.04.1.07.19.11.1.04.24.08.42.12.27.06.49.13.64.2.16.07.27.17.33.28.07.11.1.26.1.43,0,.32-.11.56-.32.74-.22.17-.49.26-.83.26-.16,0-.33-.01-.51-.03-.18-.02-.35-.04-.51-.07-.16-.03-.29-.06-.4-.09l.11-.61c.1.03.22.07.37.1.15.03.3.06.46.08.16.02.3.03.42.03s.22-.03.3-.09c.08-.06.12-.14.12-.26,0-.06-.02-.1-.05-.14-.03-.04-.09-.07-.18-.11-.09-.03-.22-.07-.39-.11-.4-.09-.68-.2-.85-.32-.17-.12-.25-.31-.25-.55,0-.22.05-.4.16-.55s.25-.26.42-.34c.18-.08.37-.12.59-.12Z"/>
              <path class="cls-2" d="M97.26,43.26c.25,0,.49.02.73.06.24.04.43.08.58.12l-.09.6c-.09-.03-.2-.06-.34-.08-.14-.03-.28-.05-.43-.07-.15-.02-.28-.03-.41-.03s-.22.03-.31.08c-.09.05-.13.13-.13.23,0,.05.02.1.05.14.03.04.1.07.19.11.1.04.24.08.42.12.27.06.49.13.64.2.16.07.27.17.33.28.07.11.1.26.1.43,0,.32-.11.56-.32.74-.22.17-.49.26-.83.26-.16,0-.33-.01-.51-.03-.18-.02-.35-.04-.51-.07-.16-.03-.29-.06-.4-.09l.11-.61c.1.03.22.07.37.1.15.03.3.06.46.08.16.02.3.03.42.03s.22-.03.3-.09c.08-.06.12-.14.12-.26,0-.06-.02-.1-.05-.14-.03-.04-.09-.07-.18-.11-.09-.03-.22-.07-.39-.11-.4-.09-.68-.2-.85-.32-.17-.12-.25-.31-.25-.55,0-.22.05-.4.16-.55s.25-.26.42-.34c.18-.08.37-.12.59-.12Z"/>
              <path class="cls-2" d="M99.24,46.36v-2.15l-.03-.87.74-.03.06.83v2.22h-.78ZM99.22,42.76v-.75h.8v.75h-.8Z"/>
              <path class="cls-2" d="M101.84,43.26c.25,0,.49.02.73.06.24.04.43.08.58.12l-.09.6c-.09-.03-.2-.06-.34-.08-.14-.03-.28-.05-.43-.07-.15-.02-.28-.03-.41-.03s-.22.03-.31.08c-.09.05-.13.13-.13.23,0,.05.02.1.05.14.03.04.1.07.19.11.1.04.24.08.42.12.27.06.49.13.64.2.16.07.27.17.33.28.07.11.1.26.1.43,0,.32-.11.56-.32.74-.22.17-.49.26-.83.26-.16,0-.33-.01-.51-.03-.18-.02-.35-.04-.51-.07-.16-.03-.29-.06-.4-.09l.11-.61c.1.03.22.07.37.1.15.03.3.06.46.08.16.02.3.03.42.03s.22-.03.3-.09c.08-.06.12-.14.12-.26,0-.06-.02-.1-.05-.14-.03-.04-.09-.07-.18-.11-.09-.03-.22-.07-.39-.11-.4-.09-.68-.2-.85-.32-.17-.12-.25-.31-.25-.55,0-.22.05-.4.16-.55s.25-.26.42-.34c.18-.08.37-.12.59-.12Z"/>
              <path class="cls-2" d="M104.21,42.48h.55v.85h1.09v.62h-1.09v1.35c0,.18.02.31.07.38.05.07.14.1.28.1.1,0,.21,0,.34-.03.13-.02.25-.04.36-.07l.1.6c-.14.03-.3.07-.48.1-.18.03-.36.05-.53.05-.31,0-.54-.08-.68-.24-.14-.16-.21-.42-.21-.79v-1.46h-.43v-.49l.48-.1.17-.88Z"/>
              <path class="cls-2" d="M108.82,46.35l-.71.03-.06-.43c-.11.08-.22.15-.36.23-.13.08-.26.14-.39.19s-.26.07-.38.07c-.14,0-.26-.04-.36-.11-.11-.07-.19-.17-.25-.28-.06-.12-.09-.24-.09-.37,0-.15.02-.29.07-.4.05-.12.14-.22.26-.31.13-.09.31-.17.54-.25.24-.08.54-.16.92-.25v-.13c0-.16-.03-.28-.1-.33-.06-.06-.16-.09-.3-.09-.06,0-.13,0-.24.02-.1.02-.21.03-.34.06-.12.02-.24.04-.36.07-.12.03-.22.05-.3.08l-.12-.6c.13-.04.29-.09.48-.13.18-.04.37-.07.56-.1.19-.03.35-.04.48-.04.22,0,.4.03.55.09.15.06.27.16.34.31.08.15.12.36.12.63v1.4l.04.66ZM108.01,45.42v-.5c-.27.07-.48.13-.62.2-.14.06-.24.12-.3.19-.05.07-.08.14-.08.22,0,.07.02.13.06.2.04.06.1.09.17.09.05,0,.12-.02.21-.06.09-.04.18-.09.28-.15.1-.06.2-.12.28-.19Z"/>
            </g>
          </g>
        </g>
        <path class="cls-8" d="M19.39,50.65c0,.37.07.64.22.8.15.16.4.24.76.24.1,0,.21,0,.34-.02.13-.01.26-.03.39-.05.13-.02.24-.03.32-.04v.64c-.15.05-.33.09-.56.13-.23.04-.44.06-.63.06-.41,0-.73-.06-.98-.19-.24-.13-.42-.31-.53-.55-.11-.24-.16-.54-.16-.89,0-.54.05-1,.16-1.38.11-.38.26-.69.45-.92.19-.23.42-.4.68-.51.26-.11.54-.16.85-.16.25,0,.49.02.7.05.21.03.37.06.48.1l-.16.7c-.12-.04-.27-.07-.45-.1-.18-.03-.37-.05-.55-.05-.26,0-.48.07-.68.2s-.36.35-.48.67c-.12.31-.17.74-.17,1.29Z"/>
        <path class="cls-8" d="M22.72,51.22c0,.18.03.3.1.38.07.08.16.12.27.12.08,0,.17-.03.26-.09.09-.06.19-.13.29-.22.1-.09.19-.18.27-.27l.13-1.08c-.09-.05-.2-.1-.31-.14-.11-.04-.22-.06-.31-.06-.13,0-.24.06-.35.17-.11.11-.19.27-.25.48-.06.21-.09.44-.09.71ZM24.89,49.3l-.28,2.34v.68s-.64.04-.64.04l-.07-.58c-.17.17-.34.32-.53.44-.18.12-.36.18-.55.18-.3,0-.53-.1-.67-.3-.14-.2-.21-.46-.21-.77,0-.43.06-.81.18-1.12.12-.31.29-.56.49-.73.21-.17.44-.26.7-.26.14,0,.3.03.47.09.17.06.31.12.43.19l.08-.21h.58Z"/>
        <path class="cls-8" d="M25.32,52.33l.27-2.23.07-.79.66-.03v.45c.19-.14.38-.26.57-.36.19-.1.39-.15.58-.15.39,0,.62.16.7.49.17-.14.35-.26.53-.35.18-.09.37-.14.56-.14.25,0,.43.07.55.2.12.13.18.32.18.58,0,.08,0,.17-.02.25l-.2,1.71v.36s-.69.05-.69.05l-.07-.47.19-1.55s0-.04,0-.06v-.05c0-.23-.1-.34-.29-.34-.1,0-.22.04-.35.13-.14.08-.27.18-.39.3l-.24,1.99h-.76l.24-1.97s0-.04,0-.05v-.05c0-.11-.02-.2-.06-.26-.05-.06-.12-.09-.22-.09-.11,0-.24.05-.4.14-.16.09-.3.2-.44.32l-.24,1.96h-.76Z"/>
        <path class="cls-8" d="M30.52,51.32c0-.67.14-1.19.43-1.55.29-.36.68-.54,1.17-.54.34,0,.61.08.82.23.21.15.31.35.31.59,0,.14-.03.27-.08.38-.05.11-.15.2-.29.28-.14.08-.34.13-.59.17-.25.04-.58.06-.99.07,0,.03-.01.06-.02.12,0,.05,0,.1,0,.16,0,.16.05.28.14.38.09.09.25.14.48.14.09,0,.2,0,.34-.02.14-.02.28-.03.42-.06.14-.02.26-.05.35-.07l.02.56c-.11.04-.24.08-.4.12-.15.04-.31.06-.46.08-.15.02-.29.03-.41.03-.41,0-.72-.1-.93-.29-.21-.19-.31-.46-.31-.8ZM31.35,50.5c.34,0,.59-.03.75-.06.16-.04.27-.08.32-.14.05-.06.07-.12.07-.2,0-.11-.04-.18-.13-.24-.08-.05-.19-.08-.31-.08-.19,0-.34.07-.46.2-.11.13-.2.31-.24.52Z"/>
        <path class="cls-8" d="M35.96,49.26l-.16.75s-.07-.01-.11-.02c-.05,0-.09,0-.13,0-.1,0-.24.07-.42.2-.18.14-.37.32-.57.56l-.19,1.59h-.76l.25-2.12.06-.9.65-.03.02.73c.18-.22.36-.4.55-.55.19-.15.36-.23.52-.23.06,0,.11,0,.17.01.06,0,.1.01.12.02Z"/>
        <path class="cls-8" d="M36.77,51.22c0,.18.03.3.1.38.07.08.16.12.27.12.08,0,.17-.03.26-.09.09-.06.19-.13.29-.22.1-.09.19-.18.27-.27l.13-1.08c-.09-.05-.2-.1-.31-.14-.11-.04-.22-.06-.31-.06-.13,0-.24.06-.35.17-.11.11-.19.27-.25.48-.06.21-.09.44-.09.71ZM38.94,49.3l-.28,2.34v.68s-.64.04-.64.04l-.07-.58c-.17.17-.34.32-.53.44-.18.12-.36.18-.55.18-.3,0-.53-.1-.67-.3-.14-.2-.21-.46-.21-.77,0-.43.06-.81.18-1.12.12-.31.29-.56.49-.73.21-.17.44-.26.7-.26.14,0,.3.03.47.09.17.06.31.12.43.19l.08-.21h.58Z"/>
        <path class="cls-8" d="M41.51,51.14c0,.2.03.34.1.44.06.1.17.15.31.15.1,0,.22-.04.37-.13.14-.09.28-.19.42-.31l.16-1.33c-.09-.03-.2-.05-.31-.08-.11-.02-.2-.03-.27-.03-.23,0-.42.1-.56.31-.14.21-.21.53-.21.97ZM43.89,47.65l-.48,3.99v.68s-.64.04-.64.04l-.06-.5c-.17.15-.34.28-.52.39-.18.1-.36.16-.55.16-.2,0-.37-.05-.51-.15-.13-.1-.24-.23-.3-.39-.07-.17-.1-.35-.1-.56,0-.47.06-.86.19-1.17.13-.31.3-.53.52-.68.22-.15.47-.22.76-.22.12,0,.25.01.38.03.13.02.25.04.35.08l.2-1.63.76-.06Z"/>
        <path class="cls-8" d="M44.14,51.32c0-.67.14-1.19.43-1.55.29-.36.68-.54,1.17-.54.34,0,.61.08.82.23.21.15.31.35.31.59,0,.14-.03.27-.08.38-.05.11-.15.2-.29.28-.14.08-.34.13-.59.17-.25.04-.58.06-.99.07,0,.03-.01.06-.02.12,0,.05,0,.1,0,.16,0,.16.05.28.14.38.09.09.25.14.48.14.09,0,.2,0,.34-.02.14-.02.28-.03.42-.06.14-.02.26-.05.35-.07l.02.56c-.11.04-.24.08-.4.12-.15.04-.31.06-.46.08-.15.02-.29.03-.41.03-.41,0-.72-.1-.93-.29-.21-.19-.31-.46-.31-.8ZM44.97,50.5c.34,0,.59-.03.75-.06.16-.04.27-.08.32-.14.05-.06.07-.12.07-.2,0-.11-.04-.18-.13-.24-.08-.05-.19-.08-.31-.08-.19,0-.34.07-.46.2-.11.13-.2.31-.24.52Z"/>
        <path class="cls-8" d="M47.29,51.87l.2-1.69.08-.87.73-.03-.03.83-.21,1.79-.03.43-.66.05-.06-.5ZM47.63,48.73l.09-.75h.78l-.09.75h-.78Z"/>
        <path class="cls-8" d="M53.19,49.65c0-.39-.09-.67-.26-.84-.17-.18-.45-.26-.83-.26h-.66l-.36,3.11h.59c.27,0,.52-.07.75-.19.23-.12.41-.33.55-.62.14-.29.21-.69.21-1.19ZM50.2,52.33l.52-4.46h1.46c.59,0,1.04.14,1.36.42.31.28.47.7.47,1.25,0,.64-.1,1.17-.31,1.58-.21.41-.49.71-.85.91-.36.2-.78.29-1.24.29h-1.41Z"/>
        <path class="cls-8" d="M54.39,51.32c0-.67.14-1.19.43-1.55.29-.36.68-.54,1.17-.54.34,0,.61.08.82.23.21.15.31.35.31.59,0,.14-.03.27-.08.38-.05.11-.15.2-.29.28-.14.08-.34.13-.59.17-.25.04-.58.06-.99.07,0,.03-.01.06-.02.12,0,.05,0,.1,0,.16,0,.16.05.28.14.38.09.09.25.14.48.14.09,0,.2,0,.34-.02.14-.02.28-.03.42-.06.14-.02.26-.05.35-.07l.02.56c-.11.04-.24.08-.4.12-.15.04-.31.06-.46.08-.15.02-.29.03-.41.03-.41,0-.72-.1-.93-.29-.21-.19-.31-.46-.31-.8ZM55.23,50.5c.34,0,.59-.03.75-.06.16-.04.27-.08.32-.14.05-.06.07-.12.07-.2,0-.11-.04-.18-.13-.24-.08-.05-.19-.08-.31-.08-.19,0-.34.07-.46.2-.11.13-.2.31-.24.52Z"/>
        <path class="cls-8" d="M59.69,50.44c0-.17-.03-.31-.09-.4-.06-.1-.17-.14-.33-.14-.09,0-.21.04-.35.13-.14.08-.28.19-.42.31l-.16,1.33c.1.03.2.05.31.07.11.02.2.03.27.03.25,0,.44-.1.57-.3.13-.2.2-.54.2-1.01ZM57.32,53.87l.44-3.71.06-.85.62-.03.04.45c.17-.15.34-.27.52-.36.18-.09.37-.14.56-.14.31,0,.54.09.69.28.14.19.22.46.22.83,0,.7-.13,1.22-.38,1.56-.25.34-.62.51-1.12.51-.11,0-.23,0-.36-.03-.12-.02-.24-.04-.34-.07l-.19,1.51-.76.06Z"/>
        <path class="cls-8" d="M61.94,49.93l-.17,1.34c-.01.14,0,.25.05.33.04.08.12.12.23.12s.25-.05.42-.15c.17-.1.32-.22.46-.34l.16-1.34.04-.58.7-.03v.64s-.18,1.6-.18,1.6v.78s-.64.04-.64.04l-.07-.52c-.19.16-.39.29-.6.4-.21.11-.42.16-.63.16-.28,0-.48-.09-.6-.27-.11-.18-.15-.43-.11-.77l.18-1.47.04-.59.7-.03v.64Z"/>
        <path class="cls-8" d="M65.19,48.45h.53l-.09.85h1.06l-.08.62h-1.07l-.17,1.34s0,.07-.01.11c0,.05,0,.08,0,.1,0,.1.02.17.06.21.04.04.12.07.23.07.09,0,.21,0,.35-.03.14-.02.26-.04.35-.06l.03.57c-.14.04-.31.08-.48.11-.18.03-.35.05-.53.05-.27,0-.47-.06-.58-.18-.12-.12-.17-.3-.17-.54,0-.05,0-.11,0-.17,0-.06.01-.11.02-.14l.17-1.46h-.42l.05-.49.48-.1.27-.88Z"/>
        <path class="cls-8" d="M67.65,51.22c0,.18.03.3.1.38.07.08.16.12.27.12.08,0,.17-.03.26-.09.09-.06.19-.13.29-.22.1-.09.19-.18.27-.27l.13-1.08c-.09-.05-.2-.1-.31-.14-.11-.04-.22-.06-.31-.06-.13,0-.24.06-.35.17-.11.11-.19.27-.25.48-.06.21-.09.44-.09.71ZM69.81,49.3l-.28,2.34v.68s-.64.04-.64.04l-.07-.58c-.17.17-.34.32-.53.44-.18.12-.36.18-.55.18-.3,0-.53-.1-.67-.3-.14-.2-.21-.46-.21-.77,0-.43.06-.81.18-1.12.12-.31.29-.56.49-.73.21-.17.44-.26.7-.26.14,0,.3.03.47.09.17.06.31.12.43.19l.08-.21h.58Z"/>
        <path class="cls-8" d="M71.09,48.45h.53l-.09.85h1.06l-.08.62h-1.07l-.17,1.34s0,.07-.01.11c0,.05,0,.08,0,.1,0,.1.02.17.06.21.04.04.12.07.23.07.09,0,.21,0,.35-.03.14-.02.26-.04.35-.06l.03.57c-.14.04-.31.08-.48.11-.18.03-.35.05-.53.05-.27,0-.47-.06-.58-.18-.12-.12-.17-.3-.17-.54,0-.05,0-.11,0-.17,0-.06.01-.11.02-.14l.17-1.46h-.42l.05-.49.48-.1.27-.88Z"/>
        <path class="cls-8" d="M72.82,51.87l.2-1.69.08-.87.73-.03-.03.83-.21,1.79-.03.43-.66.05-.06-.5ZM73.15,48.73l.09-.75h.78l-.09.75h-.78Z"/>
      </g>
    </g>
  </g>
</svg>